# xmcd
#
# Track frame offsets:
#	150
#	12102
#	21800
#	35650
#	50000
#	60597
#	71315
#	82537
#	97387
#	112702
#	122465
#	132422
#	144875
#	154012
#	163825
#	176507
#	192435
#	207265
#	220465
#	236677
#	250985
#	261170
#	272882
#	289397
#	300267
#	312440
#	326735
#
# Disc length: 4483 seconds
#
# Revision: 2
# Processed by: cddbd v1.5PL3 Copyright (c) Steve Scherf et al.
# Submitted via: audiograbber 1.80
#
DISCID=8511811b
DTITLE=blackwood brothers - Rock-A-My-Soul disc 4
DYEAR=1900
DGENRE=
TTITLE0=Inside Your Heart 
TTITLE1=I Get Happy 
TTITLE2=Do You Go To Church? 
TTITLE3=I'm Free 
TTITLE4=I'm Happy And Free 
TTITLE5=God Made A Way 
TTITLE6=His Hands 
TTITLE7=Gentle Hands 
TTITLE8=Invisible Hands 
TTITLE9=A Wonderful Time Up There 
TTITLE10=Not My Will 
TTITLE11=Shall I Crucify Him? 
TTITLE12=Tell Some One About Jesus 
TTITLE13=Amazing Grace 
TTITLE14=What A Friend 
TTITLE15=Rock Of Ages 
TTITLE16=The Last Mile Of The Way/When I Make My Last Move/When I Take My Vacat
TTITLE16=ion In Heaven 
TTITLE17=Who Is That? 
TTITLE18=The Stranger Of Galilee 
TTITLE19=The Old Ragged Cross 
TTITLE20=When I'm Alone 
TTITLE21=Sweet Peace 
TTITLE22=Whispering Hope 
TTITLE23=Footprints Of Jesus 
TTITLE24=I've Got It (You Can Have It) 
TTITLE25=One By One 
TTITLE26=There Is A God 
EXTD=
EXTT0=
EXTT1=
EXTT2=
EXTT3=
EXTT4=
EXTT5=
EXTT6=
EXTT7=
EXTT8=
EXTT9=
EXTT10=
EXTT11=
EXTT12=
EXTT13=
EXTT14=
EXTT15=
EXTT16=
EXTT17=
EXTT18=
EXTT19=
EXTT20=
EXTT21=
EXTT22=
EXTT23=
EXTT24=
EXTT25=
EXTT26=
PLAYORDER=
